<mxfile host="app.diagrams.net" modified="2021-08-31T19:03:54.094Z" agent="5.0 (Windows NT 10.0; Win64; x64) AppleWebKit/537.36 (KHTML, like Gecko) Chrome/92.0.4515.159 Safari/537.36" etag="rz9tOU260E3JlxnKEONZ" version="15.0.3" type="github">
  <diagram name="Page-1" id="c7488fd3-1785-93aa-aadb-54a6760d102a">
    <mxGraphModel dx="1185" dy="643" grid="1" gridSize="10" guides="1" tooltips="1" connect="1" arrows="1" fold="1" page="1" pageScale="1" pageWidth="1100" pageHeight="850" background="none" math="0" shadow="0">
      <root>
        <mxCell id="0" />
        <mxCell id="1" parent="0" />
        <mxCell id="Tccu-ew2ln0pexr-4rRw-2" value="FIGMA&lt;br&gt;&lt;br&gt;Single Source of Truth&lt;br&gt;Design&lt;br&gt;Accessibilité" style="rounded=1;whiteSpace=wrap;html=1;arcSize=10;fillColor=#dae8fc;strokeColor=#6c8ebf;" vertex="1" parent="1">
          <mxGeometry x="40" y="440" width="160" height="80" as="geometry" />
        </mxCell>
        <mxCell id="Tccu-ew2ln0pexr-4rRw-3" value="STORYBOOK&lt;br&gt;&lt;br&gt;Design&lt;br&gt;Intégration&lt;br&gt;Documentation" style="rounded=1;whiteSpace=wrap;html=1;arcSize=10;fillColor=#fff2cc;strokeColor=#d6b656;" vertex="1" parent="1">
          <mxGeometry x="360" y="280" width="160" height="110" as="geometry" />
        </mxCell>
        <mxCell id="Tccu-ew2ln0pexr-4rRw-4" value="UI KIT&lt;br&gt;&lt;br&gt;Composants" style="rounded=1;whiteSpace=wrap;html=1;arcSize=10;fillColor=#d5e8d4;strokeColor=#82b366;" vertex="1" parent="1">
          <mxGeometry x="720" y="295" width="160" height="80" as="geometry" />
        </mxCell>
        <mxCell id="Tccu-ew2ln0pexr-4rRw-5" value="PIPELINE AZURE&lt;br&gt;DEVOPS" style="rounded=1;whiteSpace=wrap;html=1;arcSize=10;fillColor=#ffe6cc;strokeColor=#d79b00;" vertex="1" parent="1">
          <mxGeometry x="360" y="120" width="160" height="80" as="geometry" />
        </mxCell>
        <mxCell id="Tccu-ew2ln0pexr-4rRw-8" value="" style="endArrow=classic;html=1;exitX=0.5;exitY=0;exitDx=0;exitDy=0;jumpStyle=line;shadow=0;rounded=1;jumpSize=6;endSize=6;fixDash=1;ignoreEdge=0;orthogonalLoop=0;orthogonal=0;comic=0;backgroundOutline=0;dashed=1;entryX=0.5;entryY=1;entryDx=0;entryDy=0;" edge="1" parent="1" source="Tccu-ew2ln0pexr-4rRw-2" target="Tccu-ew2ln0pexr-4rRw-24">
          <mxGeometry width="50" height="50" relative="1" as="geometry">
            <mxPoint x="440" y="420" as="sourcePoint" />
            <mxPoint x="200" y="390" as="targetPoint" />
            <Array as="points" />
          </mxGeometry>
        </mxCell>
        <mxCell id="Tccu-ew2ln0pexr-4rRw-10" value="" style="endArrow=classic;startArrow=classic;html=1;entryX=0;entryY=0.5;entryDx=0;entryDy=0;exitX=1;exitY=0.5;exitDx=0;exitDy=0;dashed=1;" edge="1" parent="1" source="Tccu-ew2ln0pexr-4rRw-3" target="Tccu-ew2ln0pexr-4rRw-4">
          <mxGeometry width="50" height="50" relative="1" as="geometry">
            <mxPoint x="440" y="420" as="sourcePoint" />
            <mxPoint x="490" y="370" as="targetPoint" />
          </mxGeometry>
        </mxCell>
        <mxCell id="Tccu-ew2ln0pexr-4rRw-11" value="" style="endArrow=classic;html=1;entryX=0.5;entryY=0;entryDx=0;entryDy=0;exitX=0.5;exitY=1;exitDx=0;exitDy=0;" edge="1" parent="1" source="Tccu-ew2ln0pexr-4rRw-5" target="Tccu-ew2ln0pexr-4rRw-3">
          <mxGeometry width="50" height="50" relative="1" as="geometry">
            <mxPoint x="440" y="420" as="sourcePoint" />
            <mxPoint x="490" y="370" as="targetPoint" />
          </mxGeometry>
        </mxCell>
        <mxCell id="Tccu-ew2ln0pexr-4rRw-12" value="" style="endArrow=classic;html=1;exitX=0.5;exitY=1;exitDx=0;exitDy=0;entryX=0.5;entryY=0;entryDx=0;entryDy=0;" edge="1" parent="1" source="Tccu-ew2ln0pexr-4rRw-4" target="Tccu-ew2ln0pexr-4rRw-13">
          <mxGeometry width="50" height="50" relative="1" as="geometry">
            <mxPoint x="520" y="460" as="sourcePoint" />
            <mxPoint x="920" y="470" as="targetPoint" />
            <Array as="points">
              <mxPoint x="800" y="400" />
              <mxPoint x="920" y="400" />
              <mxPoint x="920" y="440" />
            </Array>
          </mxGeometry>
        </mxCell>
        <mxCell id="Tccu-ew2ln0pexr-4rRw-13" value="Applications" style="rounded=1;whiteSpace=wrap;html=1;arcSize=10;fillColor=#e1d5e7;strokeColor=#9673a6;" vertex="1" parent="1">
          <mxGeometry x="840" y="440" width="160" height="80" as="geometry" />
        </mxCell>
        <mxCell id="Tccu-ew2ln0pexr-4rRw-14" value="CHRONO SAEIV" style="rounded=1;whiteSpace=wrap;html=1;arcSize=10;fillColor=#e1d5e7;strokeColor=#9673a6;" vertex="1" parent="1">
          <mxGeometry x="600" y="440" width="160" height="80" as="geometry" />
        </mxCell>
        <mxCell id="Tccu-ew2ln0pexr-4rRw-15" value="" style="endArrow=classic;html=1;entryX=0.5;entryY=0;entryDx=0;entryDy=0;exitX=0.5;exitY=1;exitDx=0;exitDy=0;" edge="1" parent="1" source="Tccu-ew2ln0pexr-4rRw-4" target="Tccu-ew2ln0pexr-4rRw-14">
          <mxGeometry width="50" height="50" relative="1" as="geometry">
            <mxPoint x="760" y="410" as="sourcePoint" />
            <mxPoint x="650" y="450" as="targetPoint" />
            <Array as="points">
              <mxPoint x="800" y="400" />
              <mxPoint x="680" y="400" />
              <mxPoint x="680" y="440" />
            </Array>
          </mxGeometry>
        </mxCell>
        <mxCell id="Tccu-ew2ln0pexr-4rRw-18" value="REGISTRE NPM" style="rounded=1;whiteSpace=wrap;html=1;arcSize=10;fillColor=#ffe6cc;strokeColor=#d79b00;" vertex="1" parent="1">
          <mxGeometry x="720" y="120" width="160" height="80" as="geometry" />
        </mxCell>
        <mxCell id="Tccu-ew2ln0pexr-4rRw-21" value="" style="endArrow=classic;startArrow=classic;html=1;shadow=0;endSize=6;entryX=0.5;entryY=1;entryDx=0;entryDy=0;exitX=0.5;exitY=0;exitDx=0;exitDy=0;" edge="1" parent="1" source="Tccu-ew2ln0pexr-4rRw-4" target="Tccu-ew2ln0pexr-4rRw-18">
          <mxGeometry width="50" height="50" relative="1" as="geometry">
            <mxPoint x="770" y="280" as="sourcePoint" />
            <mxPoint x="820" y="230" as="targetPoint" />
          </mxGeometry>
        </mxCell>
        <mxCell id="Tccu-ew2ln0pexr-4rRw-24" value="PLUGIN FIGMA" style="rhombus;whiteSpace=wrap;html=1;" vertex="1" parent="1">
          <mxGeometry x="80" y="295" width="80" height="80" as="geometry" />
        </mxCell>
        <mxCell id="Tccu-ew2ln0pexr-4rRw-25" value="" style="endArrow=classic;html=1;exitX=1;exitY=0.5;exitDx=0;exitDy=0;jumpStyle=line;shadow=0;rounded=1;jumpSize=6;endSize=6;fixDash=1;ignoreEdge=0;orthogonalLoop=0;orthogonal=0;comic=0;backgroundOutline=0;dashed=1;entryX=0;entryY=0.5;entryDx=0;entryDy=0;" edge="1" parent="1" source="Tccu-ew2ln0pexr-4rRw-24" target="Tccu-ew2ln0pexr-4rRw-3">
          <mxGeometry width="50" height="50" relative="1" as="geometry">
            <mxPoint x="230" y="367.5" as="sourcePoint" />
            <mxPoint x="230" y="302.5" as="targetPoint" />
            <Array as="points" />
          </mxGeometry>
        </mxCell>
      </root>
    </mxGraphModel>
  </diagram>
</mxfile>
